<mxfile host="Electron" agent="Mozilla/5.0 (Windows NT 10.0; Win64; x64) AppleWebKit/537.36 (KHTML, like Gecko) draw.io/25.0.2 Chrome/128.0.6613.186 Electron/32.2.5 Safari/537.36" version="25.0.2">
  <diagram id="_s5kHCaRj8zanspT5NJb" name="Seite-1">
    <mxGraphModel dx="1632" dy="1580" grid="1" gridSize="10" guides="1" tooltips="1" connect="1" arrows="1" fold="1" page="0" pageScale="1" pageWidth="827" pageHeight="1169" math="0" shadow="0">
      <root>
        <mxCell id="0" />
        <mxCell id="1" parent="0" />
        <mxCell id="Ee80wKZsMW9Ie8XtCKah-1" value="Configuration" style="swimlane;fontStyle=0;childLayout=stackLayout;horizontal=1;startSize=26;fillColor=#f5f5f5;horizontalStack=0;resizeParent=1;resizeParentMax=0;resizeLast=0;collapsible=1;marginBottom=0;whiteSpace=wrap;html=1;fontColor=#333333;strokeColor=#666666;perimeterSpacing=1;swimlaneLine=1;swimlaneFillColor=none;" parent="1" vertex="1">
          <mxGeometry x="-320" y="-80" width="320" height="182" as="geometry" />
        </mxCell>
        <mxCell id="Ee80wKZsMW9Ie8XtCKah-2" value="&lt;font face=&quot;Courier New&quot;&gt;interfaces&lt;/font&gt;: Configuration of the interfaces" style="text;strokeColor=none;fillColor=none;align=left;verticalAlign=top;spacingLeft=4;spacingRight=4;overflow=hidden;rotatable=0;points=[[0,0.5],[1,0.5]];portConstraint=eastwest;whiteSpace=wrap;html=1;" parent="Ee80wKZsMW9Ie8XtCKah-1" vertex="1">
          <mxGeometry y="26" width="320" height="26" as="geometry" />
        </mxCell>
        <mxCell id="Ee80wKZsMW9Ie8XtCKah-3" value="&lt;font face=&quot;Courier New&quot;&gt;inputs&lt;/font&gt;: List of all input data" style="text;strokeColor=none;fillColor=none;align=left;verticalAlign=top;spacingLeft=4;spacingRight=4;overflow=hidden;rotatable=0;points=[[0,0.5],[1,0.5]];portConstraint=eastwest;whiteSpace=wrap;html=1;" parent="Ee80wKZsMW9Ie8XtCKah-1" vertex="1">
          <mxGeometry y="52" width="320" height="26" as="geometry" />
        </mxCell>
        <mxCell id="Ee80wKZsMW9Ie8XtCKah-4" value="&lt;font face=&quot;Courier New&quot;&gt;outputs&lt;/font&gt;: List of all output data" style="text;strokeColor=none;fillColor=none;align=left;verticalAlign=top;spacingLeft=4;spacingRight=4;overflow=hidden;rotatable=0;points=[[0,0.5],[1,0.5]];portConstraint=eastwest;whiteSpace=wrap;html=1;" parent="Ee80wKZsMW9Ie8XtCKah-1" vertex="1">
          <mxGeometry y="78" width="320" height="26" as="geometry" />
        </mxCell>
        <mxCell id="Ee80wKZsMW9Ie8XtCKah-6" value="&lt;font face=&quot;Courier New&quot;&gt;staticdata&lt;/font&gt;: List of all static data" style="text;strokeColor=none;fillColor=none;align=left;verticalAlign=top;spacingLeft=4;spacingRight=4;overflow=hidden;rotatable=0;points=[[0,0.5],[1,0.5]];portConstraint=eastwest;whiteSpace=wrap;html=1;" parent="Ee80wKZsMW9Ie8XtCKah-1" vertex="1">
          <mxGeometry y="104" width="320" height="26" as="geometry" />
        </mxCell>
        <mxCell id="Ee80wKZsMW9Ie8XtCKah-5" value="&lt;font face=&quot;Courier New&quot;&gt;controller_components&lt;/font&gt;: Components of the service" style="text;strokeColor=none;fillColor=none;align=left;verticalAlign=top;spacingLeft=4;spacingRight=4;overflow=hidden;rotatable=0;points=[[0,0.5],[1,0.5]];portConstraint=eastwest;whiteSpace=wrap;html=1;" parent="Ee80wKZsMW9Ie8XtCKah-1" vertex="1">
          <mxGeometry y="130" width="320" height="26" as="geometry" />
        </mxCell>
        <mxCell id="Ee80wKZsMW9Ie8XtCKah-7" value="&lt;font face=&quot;Courier New&quot;&gt;controller_settings&lt;/font&gt;: Configuration of the service" style="text;strokeColor=none;fillColor=none;align=left;verticalAlign=top;spacingLeft=4;spacingRight=4;overflow=hidden;rotatable=0;points=[[0,0.5],[1,0.5]];portConstraint=eastwest;whiteSpace=wrap;html=1;" parent="Ee80wKZsMW9Ie8XtCKah-1" vertex="1">
          <mxGeometry y="156" width="320" height="26" as="geometry" />
        </mxCell>
        <mxCell id="Ee80wKZsMW9Ie8XtCKah-54" style="edgeStyle=orthogonalEdgeStyle;rounded=0;orthogonalLoop=1;jettySize=auto;html=1;entryX=1;entryY=0.5;entryDx=0;entryDy=0;" parent="1" source="Ee80wKZsMW9Ie8XtCKah-8" target="Ee80wKZsMW9Ie8XtCKah-2" edge="1">
          <mxGeometry relative="1" as="geometry">
            <Array as="points">
              <mxPoint x="20" y="-220" />
              <mxPoint x="20" y="-41" />
            </Array>
          </mxGeometry>
        </mxCell>
        <mxCell id="Ee80wKZsMW9Ie8XtCKah-22" style="edgeStyle=orthogonalEdgeStyle;rounded=0;orthogonalLoop=1;jettySize=auto;html=1;" parent="1" source="Ee80wKZsMW9Ie8XtCKah-19" target="Ee80wKZsMW9Ie8XtCKah-3" edge="1">
          <mxGeometry relative="1" as="geometry">
            <Array as="points">
              <mxPoint x="240" y="-80" />
              <mxPoint x="60" y="-80" />
              <mxPoint x="60" y="-15" />
            </Array>
          </mxGeometry>
        </mxCell>
        <mxCell id="Ee80wKZsMW9Ie8XtCKah-35" style="edgeStyle=orthogonalEdgeStyle;rounded=0;orthogonalLoop=1;jettySize=auto;html=1;entryX=1;entryY=0.5;entryDx=0;entryDy=0;" parent="1" source="Ee80wKZsMW9Ie8XtCKah-23" target="Ee80wKZsMW9Ie8XtCKah-4" edge="1">
          <mxGeometry relative="1" as="geometry">
            <Array as="points">
              <mxPoint x="110" y="80" />
              <mxPoint x="110" y="11" />
            </Array>
          </mxGeometry>
        </mxCell>
        <mxCell id="Ee80wKZsMW9Ie8XtCKah-34" style="edgeStyle=orthogonalEdgeStyle;rounded=0;orthogonalLoop=1;jettySize=auto;html=1;entryX=1;entryY=0.5;entryDx=0;entryDy=0;" parent="1" source="Ee80wKZsMW9Ie8XtCKah-29" target="Ee80wKZsMW9Ie8XtCKah-6" edge="1">
          <mxGeometry relative="1" as="geometry">
            <Array as="points">
              <mxPoint x="600" y="-20" />
              <mxPoint x="100" y="-20" />
              <mxPoint x="100" y="37" />
            </Array>
            <mxPoint x="340" y="36" as="sourcePoint" />
          </mxGeometry>
        </mxCell>
        <mxCell id="Ee80wKZsMW9Ie8XtCKah-51" style="edgeStyle=orthogonalEdgeStyle;rounded=0;orthogonalLoop=1;jettySize=auto;html=1;entryX=1;entryY=0.5;entryDx=0;entryDy=0;" parent="1" source="Ee80wKZsMW9Ie8XtCKah-36" target="Ee80wKZsMW9Ie8XtCKah-5" edge="1">
          <mxGeometry relative="1" as="geometry">
            <Array as="points">
              <mxPoint x="70" y="291" />
              <mxPoint x="70" y="63" />
            </Array>
          </mxGeometry>
        </mxCell>
        <mxCell id="Ee80wKZsMW9Ie8XtCKah-53" style="edgeStyle=orthogonalEdgeStyle;rounded=0;orthogonalLoop=1;jettySize=auto;html=1;" parent="1" source="Ee80wKZsMW9Ie8XtCKah-43" target="Ee80wKZsMW9Ie8XtCKah-7" edge="1">
          <mxGeometry relative="1" as="geometry">
            <Array as="points">
              <mxPoint x="680" y="180" />
              <mxPoint x="100" y="180" />
              <mxPoint x="100" y="89" />
            </Array>
          </mxGeometry>
        </mxCell>
        <mxCell id="Ee80wKZsMW9Ie8XtCKah-43" value="ControllerSettingModel" style="swimlane;fontStyle=0;childLayout=stackLayout;horizontal=1;startSize=26;fillColor=#f5f5f5;horizontalStack=0;resizeParent=1;resizeParentMax=0;resizeLast=0;collapsible=1;marginBottom=0;whiteSpace=wrap;html=1;fontColor=#333333;strokeColor=#666666;" parent="1" vertex="1">
          <mxGeometry x="520" y="200" width="320" height="78" as="geometry">
            <mxRectangle x="520" y="200" width="160" height="30" as="alternateBounds" />
          </mxGeometry>
        </mxCell>
        <mxCell id="Ee80wKZsMW9Ie8XtCKah-44" value="&lt;font face=&quot;Courier New&quot;&gt;time_settings&lt;/font&gt;: Configuration of time step width etc.&lt;span style=&quot;white-space: pre;&quot;&gt;&#x9;&lt;/span&gt;" style="text;strokeColor=none;fillColor=default;align=left;verticalAlign=top;spacingLeft=4;spacingRight=4;overflow=hidden;rotatable=0;points=[[0,0.5],[1,0.5]];portConstraint=eastwest;whiteSpace=wrap;html=1;" parent="Ee80wKZsMW9Ie8XtCKah-43" vertex="1">
          <mxGeometry y="26" width="320" height="26" as="geometry" />
        </mxCell>
        <mxCell id="WmkliTTnTdlKpREL6GW6-11" value="&lt;font face=&quot;Courier New&quot;&gt;specific_settings&lt;/font&gt;: settings of the controller" style="text;strokeColor=none;fillColor=default;align=left;verticalAlign=top;spacingLeft=4;spacingRight=4;overflow=hidden;rotatable=0;points=[[0,0.5],[1,0.5]];portConstraint=eastwest;whiteSpace=wrap;html=1;" vertex="1" parent="Ee80wKZsMW9Ie8XtCKah-43">
          <mxGeometry y="52" width="320" height="26" as="geometry" />
        </mxCell>
        <mxCell id="Ee80wKZsMW9Ie8XtCKah-36" value="ControllerComponentModel" style="swimlane;fontStyle=0;childLayout=stackLayout;horizontal=1;startSize=26;fillColor=#f5f5f5;horizontalStack=0;resizeParent=1;resizeParentMax=0;resizeLast=0;collapsible=1;marginBottom=0;whiteSpace=wrap;html=1;fontColor=#333333;strokeColor=#666666;" parent="1" vertex="1">
          <mxGeometry x="160" y="200" width="320" height="182" as="geometry">
            <mxRectangle x="160" y="200" width="160" height="30" as="alternateBounds" />
          </mxGeometry>
        </mxCell>
        <mxCell id="Ee80wKZsMW9Ie8XtCKah-37" value="&lt;font face=&quot;Courier New&quot;&gt;active&lt;/font&gt;:&amp;nbsp;Component active?" style="text;strokeColor=none;fillColor=default;align=left;verticalAlign=top;spacingLeft=4;spacingRight=4;overflow=hidden;rotatable=0;points=[[0,0.5],[1,0.5]];portConstraint=eastwest;whiteSpace=wrap;html=1;" parent="Ee80wKZsMW9Ie8XtCKah-36" vertex="1">
          <mxGeometry y="26" width="320" height="26" as="geometry" />
        </mxCell>
        <mxCell id="Ee80wKZsMW9Ie8XtCKah-41" value="&lt;font face=&quot;Courier New&quot;&gt;id&lt;/font&gt;: Internal ID of the component" style="text;strokeColor=none;fillColor=default;align=left;verticalAlign=top;spacingLeft=4;spacingRight=4;overflow=hidden;rotatable=0;points=[[0,0.5],[1,0.5]];portConstraint=eastwest;whiteSpace=wrap;html=1;" parent="Ee80wKZsMW9Ie8XtCKah-36" vertex="1">
          <mxGeometry y="52" width="320" height="26" as="geometry" />
        </mxCell>
        <mxCell id="Ee80wKZsMW9Ie8XtCKah-38" value="&lt;font face=&quot;Courier New&quot;&gt;type&lt;/font&gt;: Type of component" style="text;strokeColor=none;fillColor=default;align=left;verticalAlign=top;spacingLeft=4;spacingRight=4;overflow=hidden;rotatable=0;points=[[0,0.5],[1,0.5]];portConstraint=eastwest;whiteSpace=wrap;html=1;" parent="Ee80wKZsMW9Ie8XtCKah-36" vertex="1">
          <mxGeometry y="78" width="320" height="26" as="geometry" />
        </mxCell>
        <mxCell id="Ee80wKZsMW9Ie8XtCKah-39" value="&lt;font face=&quot;Courier New&quot;&gt;inputs: Input data (input and static data)&lt;/font&gt;" style="text;strokeColor=none;fillColor=default;align=left;verticalAlign=top;spacingLeft=4;spacingRight=4;overflow=hidden;rotatable=0;points=[[0,0.5],[1,0.5]];portConstraint=eastwest;whiteSpace=wrap;html=1;" parent="Ee80wKZsMW9Ie8XtCKah-36" vertex="1">
          <mxGeometry y="104" width="320" height="26" as="geometry" />
        </mxCell>
        <mxCell id="Ee80wKZsMW9Ie8XtCKah-40" value="&lt;font face=&quot;Courier New&quot;&gt;outputs&lt;/font&gt;: Output data" style="text;strokeColor=none;fillColor=default;align=left;verticalAlign=top;spacingLeft=4;spacingRight=4;overflow=hidden;rotatable=0;points=[[0,0.5],[1,0.5]];portConstraint=eastwest;whiteSpace=wrap;html=1;" parent="Ee80wKZsMW9Ie8XtCKah-36" vertex="1">
          <mxGeometry y="130" width="320" height="26" as="geometry" />
        </mxCell>
        <mxCell id="Ee80wKZsMW9Ie8XtCKah-42" value="&lt;font face=&quot;Courier New&quot;&gt;config&lt;/font&gt;: Configuration of the component" style="text;strokeColor=none;fillColor=default;align=left;verticalAlign=top;spacingLeft=4;spacingRight=4;overflow=hidden;rotatable=0;points=[[0,0.5],[1,0.5]];portConstraint=eastwest;whiteSpace=wrap;html=1;" parent="Ee80wKZsMW9Ie8XtCKah-36" vertex="1">
          <mxGeometry y="156" width="320" height="26" as="geometry" />
        </mxCell>
        <mxCell id="Ee80wKZsMW9Ie8XtCKah-23" value="OutputModel" style="swimlane;fontStyle=0;childLayout=stackLayout;horizontal=1;startSize=26;fillColor=#f5f5f5;horizontalStack=0;resizeParent=1;resizeParentMax=0;resizeLast=0;collapsible=1;marginBottom=0;whiteSpace=wrap;html=1;fontColor=#333333;strokeColor=#666666;" parent="1" vertex="1">
          <mxGeometry x="120" y="-2" width="320" height="156" as="geometry">
            <mxRectangle x="140" y="-30" width="160" height="30" as="alternateBounds" />
          </mxGeometry>
        </mxCell>
        <mxCell id="Ee80wKZsMW9Ie8XtCKah-24" value="&lt;font face=&quot;Courier New&quot;&gt;id&lt;/font&gt;: Internal ID of the output" style="text;strokeColor=none;fillColor=default;align=left;verticalAlign=top;spacingLeft=4;spacingRight=4;overflow=hidden;rotatable=0;points=[[0,0.5],[1,0.5]];portConstraint=eastwest;whiteSpace=wrap;html=1;" parent="Ee80wKZsMW9Ie8XtCKah-23" vertex="1">
          <mxGeometry y="26" width="320" height="26" as="geometry" />
        </mxCell>
        <mxCell id="Ee80wKZsMW9Ie8XtCKah-25" value="&lt;font face=&quot;Courier New&quot;&gt;interface&lt;/font&gt;: Interface" style="text;strokeColor=none;fillColor=default;align=left;verticalAlign=top;spacingLeft=4;spacingRight=4;overflow=hidden;rotatable=0;points=[[0,0.5],[1,0.5]];portConstraint=eastwest;whiteSpace=wrap;html=1;" parent="Ee80wKZsMW9Ie8XtCKah-23" vertex="1">
          <mxGeometry y="52" width="320" height="26" as="geometry" />
        </mxCell>
        <mxCell id="Ee80wKZsMW9Ie8XtCKah-26" value="&lt;font face=&quot;Courier New&quot;&gt;id_interface&lt;/font&gt;: ID of the output on the interface" style="text;strokeColor=none;fillColor=default;align=left;verticalAlign=top;spacingLeft=4;spacingRight=4;overflow=hidden;rotatable=0;points=[[0,0.5],[1,0.5]];portConstraint=eastwest;whiteSpace=wrap;html=1;" parent="Ee80wKZsMW9Ie8XtCKah-23" vertex="1">
          <mxGeometry y="78" width="320" height="26" as="geometry" />
        </mxCell>
        <mxCell id="Ee80wKZsMW9Ie8XtCKah-27" value="&lt;font face=&quot;Courier New&quot;&gt;attributes&lt;/font&gt;: List of attributes of the output" style="text;strokeColor=none;fillColor=default;align=left;verticalAlign=top;spacingLeft=4;spacingRight=4;overflow=hidden;rotatable=0;points=[[0,0.5],[1,0.5]];portConstraint=eastwest;whiteSpace=wrap;html=1;" parent="Ee80wKZsMW9Ie8XtCKah-23" vertex="1">
          <mxGeometry y="104" width="320" height="26" as="geometry" />
        </mxCell>
        <mxCell id="Ee80wKZsMW9Ie8XtCKah-28" value="&lt;font face=&quot;Courier New&quot;&gt;commands&lt;/font&gt;: List of commands of the output" style="text;strokeColor=none;fillColor=default;align=left;verticalAlign=top;spacingLeft=4;spacingRight=4;overflow=hidden;rotatable=0;points=[[0,0.5],[1,0.5]];portConstraint=eastwest;whiteSpace=wrap;html=1;" parent="Ee80wKZsMW9Ie8XtCKah-23" vertex="1">
          <mxGeometry y="130" width="320" height="26" as="geometry" />
        </mxCell>
        <mxCell id="Ee80wKZsMW9Ie8XtCKah-17" value="InputModel" style="swimlane;fontStyle=0;childLayout=stackLayout;horizontal=1;startSize=26;fillColor=#f5f5f5;horizontalStack=0;resizeParent=1;resizeParentMax=0;resizeLast=0;collapsible=1;marginBottom=0;whiteSpace=wrap;html=1;fontColor=#333333;strokeColor=#666666;" parent="1" vertex="1">
          <mxGeometry x="80" y="-160" width="320" height="130" as="geometry">
            <mxRectangle x="80" y="-120" width="160" height="30" as="alternateBounds" />
          </mxGeometry>
        </mxCell>
        <mxCell id="Ee80wKZsMW9Ie8XtCKah-18" value="&lt;font face=&quot;Courier New&quot;&gt;id&lt;/font&gt;:&amp;nbsp;Internal ID of the input" style="text;strokeColor=none;fillColor=default;align=left;verticalAlign=top;spacingLeft=4;spacingRight=4;overflow=hidden;rotatable=0;points=[[0,0.5],[1,0.5]];portConstraint=eastwest;whiteSpace=wrap;html=1;" parent="Ee80wKZsMW9Ie8XtCKah-17" vertex="1">
          <mxGeometry y="26" width="320" height="26" as="geometry" />
        </mxCell>
        <mxCell id="Ee80wKZsMW9Ie8XtCKah-19" value="&lt;font face=&quot;Courier New&quot;&gt;interface&lt;/font&gt;: Interface" style="text;strokeColor=none;fillColor=default;align=left;verticalAlign=top;spacingLeft=4;spacingRight=4;overflow=hidden;rotatable=0;points=[[0,0.5],[1,0.5]];portConstraint=eastwest;whiteSpace=wrap;html=1;" parent="Ee80wKZsMW9Ie8XtCKah-17" vertex="1">
          <mxGeometry y="52" width="320" height="26" as="geometry" />
        </mxCell>
        <mxCell id="Ee80wKZsMW9Ie8XtCKah-20" value="&lt;font face=&quot;Courier New&quot;&gt;id_interface&lt;/font&gt;:&amp;nbsp;ID of the input on the interface" style="text;strokeColor=none;fillColor=default;align=left;verticalAlign=top;spacingLeft=4;spacingRight=4;overflow=hidden;rotatable=0;points=[[0,0.5],[1,0.5]];portConstraint=eastwest;whiteSpace=wrap;html=1;" parent="Ee80wKZsMW9Ie8XtCKah-17" vertex="1">
          <mxGeometry y="78" width="320" height="26" as="geometry" />
        </mxCell>
        <mxCell id="Ee80wKZsMW9Ie8XtCKah-21" value="&lt;font face=&quot;Courier New&quot;&gt;attributes&lt;/font&gt;: List of attributes of the input" style="text;strokeColor=none;fillColor=default;align=left;verticalAlign=top;spacingLeft=4;spacingRight=4;overflow=hidden;rotatable=0;points=[[0,0.5],[1,0.5]];portConstraint=eastwest;whiteSpace=wrap;html=1;" parent="Ee80wKZsMW9Ie8XtCKah-17" vertex="1">
          <mxGeometry y="104" width="320" height="26" as="geometry" />
        </mxCell>
        <mxCell id="Ee80wKZsMW9Ie8XtCKah-8" value="InterfaceModel" style="swimlane;fontStyle=0;childLayout=stackLayout;horizontal=1;startSize=26;fillColor=#f5f5f5;horizontalStack=0;resizeParent=1;resizeParentMax=0;resizeLast=0;collapsible=1;marginBottom=0;whiteSpace=wrap;html=1;fontColor=#333333;strokeColor=#666666;" parent="1" vertex="1">
          <mxGeometry x="40" y="-280" width="320" height="104" as="geometry">
            <mxRectangle x="60" y="-110" width="160" height="30" as="alternateBounds" />
          </mxGeometry>
        </mxCell>
        <mxCell id="Ee80wKZsMW9Ie8XtCKah-9" value="&lt;font face=&quot;Courier New&quot;&gt;mqtt&lt;/font&gt;: MQTT active" style="text;strokeColor=none;fillColor=default;align=left;verticalAlign=top;spacingLeft=4;spacingRight=4;overflow=hidden;rotatable=0;points=[[0,0.5],[1,0.5]];portConstraint=eastwest;whiteSpace=wrap;html=1;" parent="Ee80wKZsMW9Ie8XtCKah-8" vertex="1">
          <mxGeometry y="26" width="320" height="26" as="geometry" />
        </mxCell>
        <mxCell id="Ee80wKZsMW9Ie8XtCKah-10" value="&lt;font face=&quot;Courier New&quot;&gt;fiware&lt;/font&gt;: FIWARE active" style="text;strokeColor=none;fillColor=default;align=left;verticalAlign=top;spacingLeft=4;spacingRight=4;overflow=hidden;rotatable=0;points=[[0,0.5],[1,0.5]];portConstraint=eastwest;whiteSpace=wrap;html=1;" parent="Ee80wKZsMW9Ie8XtCKah-8" vertex="1">
          <mxGeometry y="52" width="320" height="26" as="geometry" />
        </mxCell>
        <mxCell id="Ee80wKZsMW9Ie8XtCKah-11" value="&lt;font face=&quot;Courier New&quot;&gt;file&lt;/font&gt;: FILE active" style="text;strokeColor=none;fillColor=default;align=left;verticalAlign=top;spacingLeft=4;spacingRight=4;overflow=hidden;rotatable=0;points=[[0,0.5],[1,0.5]];portConstraint=eastwest;whiteSpace=wrap;html=1;" parent="Ee80wKZsMW9Ie8XtCKah-8" vertex="1">
          <mxGeometry y="78" width="320" height="26" as="geometry" />
        </mxCell>
        <mxCell id="Ee80wKZsMW9Ie8XtCKah-29" value="StaticDataModel" style="swimlane;fontStyle=0;childLayout=stackLayout;horizontal=1;startSize=26;fillColor=#f5f5f5;horizontalStack=0;resizeParent=1;resizeParentMax=0;resizeLast=0;collapsible=1;marginBottom=0;whiteSpace=wrap;html=1;fontColor=#333333;strokeColor=#666666;" parent="1" vertex="1">
          <mxGeometry x="440" y="-160" width="320" height="130" as="geometry">
            <mxRectangle x="180" y="10" width="160" height="30" as="alternateBounds" />
          </mxGeometry>
        </mxCell>
        <mxCell id="WmkliTTnTdlKpREL6GW6-5" value="&lt;font face=&quot;Courier New&quot;&gt;id&lt;/font&gt;:&amp;nbsp;Internal ID of the input" style="text;strokeColor=none;fillColor=default;align=left;verticalAlign=top;spacingLeft=4;spacingRight=4;overflow=hidden;rotatable=0;points=[[0,0.5],[1,0.5]];portConstraint=eastwest;whiteSpace=wrap;html=1;" vertex="1" parent="Ee80wKZsMW9Ie8XtCKah-29">
          <mxGeometry y="26" width="320" height="26" as="geometry" />
        </mxCell>
        <mxCell id="WmkliTTnTdlKpREL6GW6-8" value="&lt;font face=&quot;Courier New&quot;&gt;attributes&lt;/font&gt;: List of attributes of the input" style="text;strokeColor=none;fillColor=default;align=left;verticalAlign=top;spacingLeft=4;spacingRight=4;overflow=hidden;rotatable=0;points=[[0,0.5],[1,0.5]];portConstraint=eastwest;whiteSpace=wrap;html=1;" vertex="1" parent="Ee80wKZsMW9Ie8XtCKah-29">
          <mxGeometry y="52" width="320" height="26" as="geometry" />
        </mxCell>
        <mxCell id="WmkliTTnTdlKpREL6GW6-7" value="&lt;font face=&quot;Courier New&quot;&gt;id_interface&lt;/font&gt;:&amp;nbsp;ID of the input on the interface" style="text;strokeColor=none;fillColor=default;align=left;verticalAlign=top;spacingLeft=4;spacingRight=4;overflow=hidden;rotatable=0;points=[[0,0.5],[1,0.5]];portConstraint=eastwest;whiteSpace=wrap;html=1;" vertex="1" parent="Ee80wKZsMW9Ie8XtCKah-29">
          <mxGeometry y="78" width="320" height="26" as="geometry" />
        </mxCell>
        <mxCell id="WmkliTTnTdlKpREL6GW6-6" value="&lt;font face=&quot;Courier New&quot;&gt;interface&lt;/font&gt;: Interface" style="text;strokeColor=none;fillColor=default;align=left;verticalAlign=top;spacingLeft=4;spacingRight=4;overflow=hidden;rotatable=0;points=[[0,0.5],[1,0.5]];portConstraint=eastwest;whiteSpace=wrap;html=1;" vertex="1" parent="Ee80wKZsMW9Ie8XtCKah-29">
          <mxGeometry y="104" width="320" height="26" as="geometry" />
        </mxCell>
      </root>
    </mxGraphModel>
  </diagram>
</mxfile>
